<?xml version="1.0" encoding="UTF-8" standalone="no"?>
<!-- Created with Inkscape (http://www.inkscape.org/) -->

<svg
   width="255.99998"
   height="256"
   version="1.1"
   viewBox="0 0 67.733328 67.733336"
   id="svg3"
   xmlns="http://www.w3.org/2000/svg"
   xmlns:svg="http://www.w3.org/2000/svg">
  <defs
     id="defs3" />
  <g
     id="layer1">
    <rect
       style="opacity:1;fill:#812ddf;fill-opacity:1;stroke-width:0;stroke-dasharray:none"
       id="rect4"
       width="67.733337"
       height="67.733337"
       x="0"
       y="-2.220446e-16"
       rx="12.7"
       ry="12.7" />
    <g
       id="text4"
       style="font-size:25.4px;fill:#ff0000;stroke-width:0"
       aria-label="SCBGUI">
      <path
         style="font-weight:bold;font-family:'Open Sans';-inkscape-font-specification:'Open Sans';text-align:center;text-anchor:middle;fill:#f2eafd"
         d="m 23.318474,22.01233 c 0,1.637109 -0.591178,2.926953 -1.773535,3.869532 -1.174089,0.942578 -2.811198,1.413867 -4.911328,1.413867 -1.934766,0 -3.646289,-0.363802 -5.13457,-1.091407 v -3.571875 c 1.223697,0.545703 2.257226,0.930176 3.100585,1.153418 0.851628,0.223243 1.628842,0.334864 2.331641,0.334864 0.843359,0 1.488281,-0.161231 1.934766,-0.483692 0.454753,-0.322461 0.682129,-0.802018 0.682129,-1.438672 0,-0.355533 -0.09922,-0.669726 -0.297657,-0.942578 C 19.052068,20.974668 18.758546,20.70595 18.369939,20.449635 17.9896,20.19332 17.208253,19.784042 16.025896,19.221803 14.917953,18.700904 14.086996,18.200676 13.533025,17.721119 12.979054,17.241562 12.536703,16.683457 12.205974,16.046803 11.875245,15.41015 11.70988,14.666009 11.70988,13.814381 c 0,-1.604036 0.541569,-2.864941 1.624707,-3.782715 1.091407,-0.9177731 2.596224,-1.3766597 4.514453,-1.3766597 0.942579,0 1.839682,0.1116211 2.691309,0.3348633 0.859896,0.2232422 1.756999,0.5374349 2.691309,0.9425781 l -1.240235,2.9889643 c -0.967383,-0.396875 -1.769401,-0.67386 -2.406054,-0.830957 -0.628386,-0.157096 -1.248503,-0.235644 -1.860352,-0.235644 -0.727604,0 -1.285709,0.169499 -1.674316,0.508496 -0.388607,0.338997 -0.582911,0.781348 -0.582911,1.327051 0,0.338997 0.07855,0.636654 0.235645,0.892969 0.157097,0.248047 0.405144,0.491959 0.744141,0.731738 0.347265,0.23151 1.161686,0.65319 2.443261,1.265039 1.694987,0.810287 2.856674,1.624707 3.485059,2.443262 0.628385,0.810286 0.942578,1.806607 0.942578,2.988964 z M 34.30695,11.854811 c -1.44694,0 -2.567285,0.545703 -3.361035,1.637109 -0.79375,1.083138 -1.190625,2.596224 -1.190625,4.539258 0,4.043164 1.51722,6.064746 4.55166,6.064746 1.273307,0 2.815332,-0.318327 4.626074,-0.95498 v 3.224609 c -1.488281,0.620117 -3.150195,0.930176 -4.985742,0.930176 -2.637565,0 -4.655012,-0.797884 -6.052343,-2.393653 -1.397331,-1.604036 -2.095996,-3.902604 -2.095996,-6.895703 0,-1.885156 0.343131,-3.534668 1.029394,-4.948535 0.686263,-1.422135 1.670183,-2.509407 2.951758,-3.2618161 1.289843,-0.7606771 2.798795,-1.1410156 4.526855,-1.1410156 1.761133,0 3.530534,0.4258138 5.308203,1.2774414 L 38.374919,13.057838 C 37.696924,12.735377 37.014795,12.454258 36.328532,12.214479 35.642269,11.9747 34.968409,11.854811 34.30695,11.854811 Z m 8.483203,-2.9393555 h 5.643067 c 2.571419,0 4.435905,0.3679362 5.593457,1.1038085 1.16582,0.727604 1.74873,1.88929 1.74873,3.485059 0,1.083138 -0.256315,1.971973 -0.768945,2.666504 -0.504362,0.694531 -1.178223,1.112076 -2.021582,1.252636 v 0.124024 c 1.149284,0.256315 1.976107,0.735872 2.480469,1.438671 0.51263,0.7028 0.768945,1.63711 0.768945,2.80293 0,1.653646 -0.599447,2.94349 -1.79834,3.869531 -1.190625,0.926042 -2.811198,1.389063 -4.861719,1.389063 h -6.784082 z m 3.844727,7.1809565 h 2.232422 c 1.041797,0 1.794205,-0.16123 2.257226,-0.483691 0.471289,-0.322461 0.706934,-0.855761 0.706934,-1.599902 0,-0.694531 -0.256315,-1.190625 -0.768945,-1.488282 -0.504362,-0.305924 -1.30638,-0.458886 -2.406055,-0.458886 H 46.63488 Z m 0,3.050977 v 4.725293 h 2.505273 c 1.058333,0 1.839681,-0.202572 2.344043,-0.607715 0.504362,-0.405143 0.756543,-1.025261 0.756543,-1.860352 0,-1.504817 -1.07487,-2.257226 -3.224609,-2.257226 z"
         id="path2" />
      <path
         style="font-weight:bold;font-family:'Open Sans';-inkscape-font-specification:'Open Sans';text-align:center;text-anchor:middle;fill:#f2eafd"
         d="m 20.118669,48.647956 h 7.19336 v 9.400977 c -1.165821,0.380338 -2.265495,0.644921 -3.299024,0.79375 -1.02526,0.157096 -2.075325,0.235644 -3.150195,0.235644 -2.736784,0 -4.828646,-0.802018 -6.275586,-2.406054 -1.438672,-1.612305 -2.158008,-3.923275 -2.158008,-6.932911 0,-2.926953 0.835091,-5.208984 2.505274,-6.846093 1.67845,-1.637109 4.001822,-2.455664 6.970117,-2.455664 1.860351,0 3.654557,0.37207 5.382617,1.116211 l -1.277441,3.075781 c -1.322917,-0.661459 -2.699577,-0.992188 -4.129981,-0.992188 -1.661914,0 -2.993099,0.558106 -3.993555,1.674317 -1.000455,1.116211 -1.500683,2.616894 -1.500683,4.502051 0,1.967838 0.401009,3.472656 1.203027,4.514453 0.810287,1.033529 1.984375,1.550293 3.522266,1.550293 0.802018,0 1.616439,-0.08268 2.443262,-0.248047 v -3.782715 h -3.43545 z m 26.268164,-7.949902 v 11.732617 c 0,1.339453 -0.30179,2.513542 -0.905371,3.522266 -0.595313,1.008724 -1.459343,1.781803 -2.59209,2.319238 -1.132747,0.537435 -2.4722,0.806152 -4.018359,0.806152 -2.331641,0 -4.142383,-0.595312 -5.432227,-1.785937 -1.289843,-1.198893 -1.934765,-2.836003 -1.934765,-4.911328 V 40.698054 h 3.832324 v 11.100098 c 0,1.397331 0.28112,2.422591 0.843359,3.075781 0.56224,0.65319 1.492416,0.979785 2.790527,0.979785 1.256771,0 2.166277,-0.326595 2.728516,-0.979785 0.570508,-0.661459 0.855762,-1.694987 0.855762,-3.100586 V 40.698054 Z M 50.826872,58.83028 V 40.698054 h 3.844726 V 58.83028 Z"
         id="path3" />
    </g>
  </g>
</svg>
