<?xml version="1.0" encoding="UTF-8" standalone="no"?>
<svg
   width="128.00002"
   height="127.99999"
   viewBox="0 0 33.866671 33.866665"
   version="1.1"
   id="svg1"
   sodipodi:docname="app-icon-grid.svg"
   inkscape:version="1.4.2 (ebf0e940d0, 2025-05-08)"
   inkscape:export-filename="inkscape.svg"
   inkscape:export-xdpi="119.28957"
   inkscape:export-ydpi="119.28957"
   xmlns:inkscape="http://www.inkscape.org/namespaces/inkscape"
   xmlns:sodipodi="http://sodipodi.sourceforge.net/DTD/sodipodi-0.dtd"
   xmlns:xlink="http://www.w3.org/1999/xlink"
   xmlns="http://www.w3.org/2000/svg"
   xmlns:svg="http://www.w3.org/2000/svg"
   xmlns:bx="https://boxy-svg.com">
  <sodipodi:namedview
     id="namedview5"
     pagecolor="#505050"
     bordercolor="#eeeeee"
     borderopacity="1"
     inkscape:showpageshadow="0"
     inkscape:pageopacity="0"
     inkscape:pagecheckerboard="0"
     inkscape:deskcolor="#505050"
     inkscape:zoom="4.9360607"
     inkscape:cx="54.091717"
     inkscape:cy="65.538091"
     inkscape:window-width="1440"
     inkscape:window-height="932"
     inkscape:window-x="0"
     inkscape:window-y="0"
     inkscape:window-maximized="1"
     inkscape:current-layer="svg1" />
  <defs
     id="defs1">
    <linearGradient
       id="swatch6"
       inkscape:swatch="solid">
      <stop
         style="stop-color:#000000;stop-opacity:1;"
         offset="0"
         id="stop6" />
    </linearGradient>
    <path
       id="path-0"
       d="M 16.562339012412565 -3.630035388198526 L 59.68046585963478 2.07153510399616"
       style="fill: none;" />
    <pattern
       id="pattern-0"
       viewBox="0 0 100 100"
       patternUnits="userSpaceOnUse"
       preserveAspectRatio="none"
       width="100"
       height="100"
       bx:pinned="true"
       inkscape:label="pattern-0">
      <title
         id="title1">Two-color</title>
      <g
         id="g2">
        <rect
           width="100"
           height="100"
           style="stroke: rgba(0, 0, 0, 0); fill: rgb(129, 45, 223);"
           id="rect1" />
        <rect
           width="13"
           height="100"
           style="stroke: rgba(0, 0, 0, 0); fill: rgb(137, 60, 224);"
           x="87"
           id="rect2" />
        <path
           d="M 141.786 24.398 L 141.786 99.398 L 41.786 99.398 L 141.786 24.398 Z"
           bx:shape="triangle 41.786 24.398 100 75 1 0 1@d0804d6f"
           style="stroke: rgba(0, 0, 0, 0); fill: rgb(137, 60, 224); transform-box: fill-box; transform-origin: 50% 50%; stroke-width: 1;"
           transform="matrix(0, -1, 1, 0, -42.285997, -11.898006)"
           id="path2" />
      </g>
    </pattern>
    <pattern
       id="pattern-0-0"
       href="#pattern-0"
       patternTransform="translate(-22.5945,-33.389501)"
       x="0"
       y="0"
       preserveAspectRatio="none" />
    <bx:export>
      <bx:file
         format="svg"
         path="scbGui.svg"
         width="128"
         height="128" />
    </bx:export>
    <linearGradient
       inkscape:collect="always"
       xlink:href="#swatch6"
       id="linearGradient6"
       x1="0.17200001"
       y1="16.610499"
       x2="54.638999"
       y2="16.610499"
       gradientUnits="userSpaceOnUse" />
  </defs>
  <g
     id="svg3"
     transform="matrix(0.500389, 0, 0, 0.500389, 3.219839, 8.621539)"
     style="">
    <title
       id="title2">Basic icon</title>
    <rect
       ry="2.097"
       rx="2.097"
       y="-10.623"
       x="0.172"
       height="54.467"
       width="54.467"
       id="rect2896"
       style="display:inline;stroke:currentcolor;stroke-linecap:butt;stroke-linejoin:miter;stroke-miterlimit:4;stroke-dasharray:none;stroke-dashoffset:0;marker:none;paint-order:stroke;stroke-opacity:0;stroke-width:0px;fill:#8133eb;fill-opacity:1">
      <title
         id="title3"
         style="fill:url(#linearGradient6);fill-opacity:1.0">background</title>
    </rect>
    <path
       style="font-weight: bold; font-family: &quot;Open Sans&quot;; text-align: center; text-anchor: middle; fill: rgb(242, 234, 253);"
       d="M 19.028 7.193 C 19.028 8.497 18.557 9.525 17.615 10.276 C 16.68 11.027 15.376 11.402 13.703 11.402 C 12.161 11.402 10.798 11.112 9.612 10.532 L 9.612 7.687 C 10.587 8.122 11.41 8.428 12.082 8.606 C 12.761 8.784 13.38 8.873 13.94 8.873 C 14.612 8.873 15.125 8.744 15.481 8.487 C 15.843 8.23 16.025 7.848 16.025 7.341 C 16.025 7.058 15.946 6.807 15.787 6.59 C 15.629 6.366 15.396 6.152 15.086 5.948 C 14.783 5.744 14.16 5.418 13.218 4.97 C 12.336 4.555 11.674 4.156 11.232 3.774 C 10.791 3.392 10.439 2.947 10.175 2.44 C 9.912 1.933 9.78 1.34 9.78 0.662 C 9.78 -0.616 10.211 -1.621 11.074 -2.352 C 11.944 -3.083 13.143 -3.449 14.671 -3.449 C 15.422 -3.449 16.137 -3.36 16.815 -3.182 C 17.5 -3.004 18.215 -2.754 18.959 -2.431 L 17.971 -0.05 C 17.2 -0.366 16.561 -0.587 16.054 -0.712 C 15.554 -0.837 15.06 -0.9 14.572 -0.9 C 13.992 -0.9 13.548 -0.765 13.238 -0.494 C 12.929 -0.224 12.774 0.128 12.774 0.563 C 12.774 0.833 12.836 1.07 12.962 1.274 C 13.087 1.472 13.284 1.666 13.554 1.857 C 13.831 2.042 14.48 2.378 15.501 2.865 C 16.851 3.511 17.777 4.159 18.277 4.812 C 18.778 5.457 19.028 6.251 19.028 7.193 L 19.028 7.193 Z M 27.783 -0.9 C 26.63 -0.9 25.737 -0.465 25.105 0.405 C 24.473 1.268 24.157 2.473 24.157 4.021 C 24.157 7.242 25.365 8.853 27.783 8.853 C 28.797 8.853 30.026 8.599 31.468 8.092 L 31.468 10.661 C 30.283 11.155 28.959 11.402 27.496 11.402 C 25.395 11.402 23.788 10.766 22.674 9.495 C 21.561 8.217 21.005 6.386 21.005 4.001 C 21.005 2.499 21.278 1.185 21.825 0.059 C 22.371 -1.074 23.155 -1.94 24.176 -2.54 C 25.204 -3.146 26.406 -3.449 27.783 -3.449 C 29.186 -3.449 30.595 -3.11 32.012 -2.431 L 31.024 0.059 C 30.483 -0.198 29.94 -0.422 29.393 -0.613 C 28.847 -0.804 28.31 -0.9 27.783 -0.9 Z M 34.541 -3.241 L 39.037 -3.241 C 41.086 -3.241 42.571 -2.948 43.493 -2.362 C 44.422 -1.782 44.886 -0.857 44.886 0.415 C 44.886 1.278 44.682 1.986 44.274 2.539 C 43.872 3.092 43.335 3.425 42.663 3.537 L 42.663 3.636 C 43.579 3.84 44.238 4.222 44.639 4.782 C 45.048 5.342 45.252 6.086 45.252 7.015 C 45.252 8.332 44.774 9.36 43.819 10.098 C 42.871 10.836 41.58 11.204 39.946 11.204 L 34.541 11.204 L 34.541 -3.241 Z M 37.604 2.48 L 39.383 2.48 C 40.213 2.48 40.812 2.351 41.181 2.094 C 41.557 1.837 41.744 1.413 41.744 0.82 C 41.744 0.266 41.54 -0.129 41.132 -0.366 C 40.73 -0.61 40.091 -0.732 39.215 -0.732 L 37.604 -0.732 L 37.604 2.48 Z M 37.604 4.91 L 37.604 8.675 L 39.6 8.675 C 40.443 8.675 41.066 8.514 41.468 8.191 C 41.869 7.868 42.07 7.374 42.07 6.709 C 42.07 5.51 41.214 4.91 39.501 4.91 L 37.604 4.91 Z"
       id="path4">
      <title
         id="title4">textscb</title>
    </path>
    <path
       style="font-weight: bold; font-family: &quot;Open Sans&quot;; text-align: center; text-anchor: middle; fill: rgb(242, 234, 253);"
       d="M 16.479 28.413 L 22.21 28.413 L 22.21 35.903 C 21.281 36.206 20.405 36.416 19.582 36.535 C 18.765 36.66 17.928 36.723 17.072 36.723 C 14.892 36.723 13.225 36.084 12.072 34.806 C 10.926 33.521 10.353 31.68 10.353 29.283 C 10.353 26.951 11.018 25.133 12.349 23.828 C 13.686 22.524 15.537 21.872 17.902 21.872 C 19.384 21.872 20.814 22.168 22.19 22.761 L 21.173 25.212 C 20.119 24.685 19.022 24.421 17.882 24.421 C 16.558 24.421 15.498 24.866 14.701 25.755 C 13.904 26.644 13.505 27.84 13.505 29.342 C 13.505 30.91 13.825 32.108 14.463 32.938 C 15.109 33.762 16.044 34.174 17.27 34.174 C 17.909 34.174 18.557 34.108 19.216 33.976 L 19.216 30.962 L 16.479 30.962 L 16.479 28.413 Z M 37.407 22.079 L 37.407 31.427 C 37.407 32.494 37.166 33.429 36.685 34.233 C 36.211 35.036 35.523 35.652 34.62 36.081 C 33.718 36.509 32.651 36.723 31.419 36.723 C 29.561 36.723 28.119 36.248 27.091 35.3 C 26.063 34.345 25.55 33.041 25.55 31.387 L 25.55 22.079 L 28.603 22.079 L 28.603 30.923 C 28.603 32.036 28.827 32.853 29.275 33.373 C 29.723 33.894 30.464 34.154 31.498 34.154 C 32.499 34.154 33.224 33.894 33.672 33.373 C 34.126 32.846 34.353 32.023 34.353 30.903 L 34.353 22.079 L 37.407 22.079 Z M 40.944 36.525 L 40.944 22.079 L 44.007 22.079 L 44.007 36.525 L 40.944 36.525 Z"
       id="path3">
      <title
         id="title5">textgui</title>
    </path>
  </g>
  <path
     style="fill:#ff82ff;fill-opacity:0.12436602;stroke:#ffffff;stroke-width:0;stroke-opacity:0;stroke-dasharray:none"
     d="M 11.1125,3.3072917 23.944792,30.559375 h 5.581932 c 0.860206,0 1.032651,-0.883756 1.032651,-0.926041 0,-0.04228 0,-25.2872985 0,-25.2872985 0,-0.7430546 -0.688492,-1.0387438 -0.926041,-1.0387438 z"
     id="path10"
     sodipodi:nodetypes="ccszssc" />
</svg>
