<?xml version="1.0" encoding="UTF-8" standalone="no"?>
<svg
   width="128.00002"
   height="127.99999"
   viewBox="0 0 33.866671 33.866665"
   version="1.1"
   id="svg1"
   xmlns="http://www.w3.org/2000/svg"
   xmlns:svg="http://www.w3.org/2000/svg"
   xmlns:bx="https://boxy-svg.com">
  <defs
     id="defs1">
    <linearGradient
       id="swatch6">
      <stop
         style="stop-color:#000000;stop-opacity:1;"
         offset="0"
         id="stop6" />
    </linearGradient>
    <bx:export>
      <bx:file
         format="svg"
         path="scbGui.svg"
         width="128"
         height="128" />
    </bx:export>
  </defs>
  <g
     id="svg3"
     transform="matrix(0.500389,0,0,0.500389,3.219839,8.621539)">
    <title
       id="title2">Basic icon</title>
    <rect
       ry="2.0969999"
       rx="2.0969999"
       y="-10.623"
       x="0.17200001"
       height="54.466999"
       width="54.466999"
       id="rect2896"
       style="display:inline;fill:#8133eb;fill-opacity:1;stroke-width:0px;stroke-linecap:butt;stroke-linejoin:miter;stroke-miterlimit:4;stroke-dasharray:none;stroke-dashoffset:0;stroke-opacity:0;marker:none;paint-order:stroke">
      <title
         id="title3">background</title>
    </rect>
    <path
       style="font-weight:bold;font-family:'Open Sans';text-align:center;text-anchor:middle;fill:#f2eafd"
       d="m 19.028,7.193 c 0,1.304 -0.471,2.332 -1.413,3.083 -0.935,0.751 -2.239,1.126 -3.912,1.126 -1.542,0 -2.905,-0.29 -4.091,-0.87 V 7.687 c 0.975,0.435 1.798,0.741 2.47,0.919 0.679,0.178 1.298,0.267 1.858,0.267 0.672,0 1.185,-0.129 1.541,-0.386 C 15.843,8.23 16.025,7.848 16.025,7.341 16.025,7.058 15.946,6.807 15.787,6.59 15.629,6.366 15.396,6.152 15.086,5.948 14.783,5.744 14.16,5.418 13.218,4.97 12.336,4.555 11.674,4.156 11.232,3.774 10.791,3.392 10.439,2.947 10.175,2.44 9.912,1.933 9.78,1.34 9.78,0.662 c 0,-1.278 0.431,-2.283 1.294,-3.014 0.87,-0.731 2.069,-1.097 3.597,-1.097 0.751,0 1.466,0.089 2.144,0.267 0.685,0.178 1.4,0.428 2.144,0.751 L 17.971,-0.05 C 17.2,-0.366 16.561,-0.587 16.054,-0.712 15.554,-0.837 15.06,-0.9 14.572,-0.9 c -0.58,0 -1.024,0.135 -1.334,0.406 -0.309,0.27 -0.464,0.622 -0.464,1.057 0,0.27 0.062,0.507 0.188,0.711 0.125,0.198 0.322,0.392 0.592,0.583 0.277,0.185 0.926,0.521 1.947,1.008 1.35,0.646 2.276,1.294 2.776,1.947 0.501,0.645 0.751,1.439 0.751,2.381 z M 27.783,-0.9 c -1.153,0 -2.046,0.435 -2.678,1.305 -0.632,0.863 -0.948,2.068 -0.948,3.616 0,3.221 1.208,4.832 3.626,4.832 1.014,0 2.243,-0.254 3.685,-0.761 v 2.569 c -1.185,0.494 -2.509,0.741 -3.972,0.741 -2.101,0 -3.708,-0.636 -4.822,-1.907 -1.113,-1.278 -1.669,-3.109 -1.669,-5.494 0,-1.502 0.273,-2.816 0.82,-3.942 0.546,-1.133 1.33,-1.999 2.351,-2.599 1.028,-0.606 2.23,-0.909 3.607,-0.909 1.403,0 2.812,0.339 4.229,1.018 l -0.988,2.49 C 30.483,-0.198 29.94,-0.422 29.393,-0.613 28.847,-0.804 28.31,-0.9 27.783,-0.9 Z m 6.758,-2.341 h 4.496 c 2.049,0 3.534,0.293 4.456,0.879 0.929,0.58 1.393,1.505 1.393,2.777 0,0.863 -0.204,1.571 -0.612,2.124 -0.402,0.553 -0.939,0.886 -1.611,0.998 v 0.099 c 0.916,0.204 1.575,0.586 1.976,1.146 0.409,0.56 0.613,1.304 0.613,2.233 0,1.317 -0.478,2.345 -1.433,3.083 -0.948,0.738 -2.239,1.106 -3.873,1.106 h -5.405 z m 3.063,5.721 h 1.779 c 0.83,0 1.429,-0.129 1.798,-0.386 0.376,-0.257 0.563,-0.681 0.563,-1.274 0,-0.554 -0.204,-0.949 -0.612,-1.186 -0.402,-0.244 -1.041,-0.366 -1.917,-0.366 h -1.611 z m 0,2.43 V 8.675 H 39.6 c 0.843,0 1.466,-0.161 1.868,-0.484 C 41.869,7.868 42.07,7.374 42.07,6.709 42.07,5.51 41.214,4.91 39.501,4.91 Z"
       id="path4">
      <title
         id="title4">textscb</title>
    </path>
    <path
       style="font-weight:bold;font-family:'Open Sans';text-align:center;text-anchor:middle;fill:#f2eafd"
       d="m 16.479,28.413 h 5.731 v 7.49 c -0.929,0.303 -1.805,0.513 -2.628,0.632 -0.817,0.125 -1.654,0.188 -2.51,0.188 -2.18,0 -3.847,-0.639 -5,-1.917 -1.146,-1.285 -1.719,-3.126 -1.719,-5.523 0,-2.332 0.665,-4.15 1.996,-5.455 1.337,-1.304 3.188,-1.956 5.553,-1.956 1.482,0 2.912,0.296 4.288,0.889 l -1.017,2.451 c -1.054,-0.527 -2.151,-0.791 -3.291,-0.791 -1.324,0 -2.384,0.445 -3.181,1.334 -0.797,0.889 -1.196,2.085 -1.196,3.587 0,1.568 0.32,2.766 0.958,3.596 0.646,0.824 1.581,1.236 2.807,1.236 0.639,0 1.287,-0.066 1.946,-0.198 v -3.014 h -2.737 z m 20.928,-6.334 v 9.348 c 0,1.067 -0.241,2.002 -0.722,2.806 -0.474,0.803 -1.162,1.419 -2.065,1.848 -0.902,0.428 -1.969,0.642 -3.201,0.642 -1.858,0 -3.3,-0.475 -4.328,-1.423 -1.028,-0.955 -1.541,-2.259 -1.541,-3.913 v -9.308 h 3.053 v 8.844 c 0,1.113 0.224,1.93 0.672,2.45 0.448,0.521 1.189,0.781 2.223,0.781 1.001,0 1.726,-0.26 2.174,-0.781 0.454,-0.527 0.681,-1.35 0.681,-2.47 v -8.824 z m 3.537,14.446 V 22.079 h 3.063 v 14.446 z"
       id="path3">
      <title
         id="title5">textgui</title>
    </path>
  </g>
  <path
     style="fill:#ff82ff;fill-opacity:0.124366;stroke:#ffffff;stroke-width:0;stroke-dasharray:none;stroke-opacity:0"
     d="M 11.1125,3.3072917 23.944792,30.559375 h 5.581932 c 0.860206,0 1.032651,-0.883756 1.032651,-0.926041 0,-0.04228 0,-25.2872985 0,-25.2872985 0,-0.7430546 -0.688492,-1.0387438 -0.926041,-1.0387438 z"
     id="path10" />
</svg>
